<?xml version="1.0" encoding="utf-8"?>
<!-- Generator: Adobe Illustrator 21.0.0, SVG Export Plug-In . SVG Version: 6.00 Build 0)  -->
<svg version="1.1" id="Слой_2" xmlns="http://www.w3.org/2000/svg" xmlns:xlink="http://www.w3.org/1999/xlink" x="0px" y="0px"
	 viewBox="0 0 1560 1131.1" style="enable-background:new 0 0 1560 1131.1;" xml:space="preserve">
<style type="text/css">
	.st0{fill:none;stroke:#000000;stroke-miterlimit:10;}
</style>
<path class="st0" d="M1207.7,684.9c0,0,127.3-19,177.3-35.3c0,0,35.3-8,14-21c0,0-9.3-4.3-13-14.7c0,0,3.3-3.7,0.3-8.7
	c0,0,4.7-5,2.3-10.7c0,0,4-4.3,1.3-10.3c0,0,4-4.3,1.3-10c0,0,2.3-10.3-0.3-22.3s1-18,1-18s-12.3-16-26-27c0,0-7.7-23-15.3-32
	c-7.7-9-37-24.3-46.3-27c-9.3-2.7-70-41.3-217-44.3c0,0-106.7-63-131.3-74s-40.7-20.3-66.3-29.3c-25.7-9-144-26.3-242-25.3
	s-160-2.7-277,29.7c0,0-3.3,0.7-7,8c0,0-9.7,3.3-85.7,45.3c0,0-35.7,17.7-63,22c0,0-10,7.3-15.3,16.7c0,0-10.3,2.3-15,8.3
	c-4.7,6-6.7,5.3-8.3,16.3c0,0,2,8.3,2,9.7c0,1.3-2,6.3-2,15.3s0,22,1.7,30.3c0,0-10.3,2.3-10.7,15.3c-0.3,13-2.7,32.7-2.3,45.7
	c0,0,5.3,9.3,3,32.3c0,0,3,7.3,28.7,14.7c0,0,10,6,38,14l6-1c0,0,18.7,59.7,49.3,59.7s50.7,0,50.7,0s22,0,37.3-27.3
	c0,0,12.3-4.3,33.3-2.3S804,673.2,804,673.2l17.7-2c0,0,25.7,65,88,65s58-0.7,98.7-32c0,0,3-3,6.7-8.3c3.7-5.3,62,6,147.7-2
	C1162.7,693.9,1190.9,687.5,1207.7,684.9z"/>
<g id="Слой_3">
	<path class="st0" d="M1195.6,687c2.1-2.1,3.1-5.4,1.9-9.7s-38.3-13.5-57.3-15.5s-24.3-11-24.3-11s-4.2-2.9,10.8-19.1
		c15-16.2,53-63.5,80.2-66.2s64.3-6.5,81.2-4.5c0,0,4.5,0,9.5,3.5s7.7,6.3,12.7,7.3s14.2,1.5,34.7-2.8s17.2-8.6,17.2-8.6
		s2-10.8,3.7-11.8c1.7-1,0.3-1.5,7.7-3.3c7.3-1.8,14.2-6.3,16.6-4.2"/>
	<path class="st0" d="M1209.2,684.7c7.2-2.7,6.5-6.6,6.5-6.6c-10.8-8.3-40.8-14.5-40.8-14.5s57.3,5.8,90,0s101.5-13.8,128.8-29.8
		c0,0,2.8-0.5,3.3-6.4"/>
	<path class="st0" d="M1386,613.9c1.3,8.3-2.8,10.9-2.8,10.9c-36,21.5-163.8,31.2-163.8,31.2s-16.5-6.2-26.3-6.7
		c0,0,3.4-4.4,4.1-12.8c0,0,20.2,3.8,25.3,6.2c5.2,2.3,125.2-6.8,152.7-24.5c0,0,8.7-2.3,11-13"/>
	<path class="st0" d="M1123.7,650.8c0,0,44.3,3.7,76.2,3.9"/>
	<path class="st0" d="M1301.3,580.5l-0.6,29.3c0,0-0.8,4.4,5,3.4s72.1-13.2,72.1-13.2s2.2-0.2,2.3-3.1c0.1-2.9,0.3-30.2,0.3-30.2
		s0.7-3-4.3-2s-72.3,11.6-72.3,11.6S1301.3,576,1301.3,580.5z"/>
	<path class="st0" d="M1187.8,649.4c0,0,7.4-4.3,7-13.4c0,0-44.1-2.7-44.9-4.3c0,0-5.5,5.8-7.2,12.8c0,0-0.2,2.3,2.7,2.7
		C1148.3,647.6,1187.8,649.4,1187.8,649.4z"/>
	<path class="st0" d="M1136.8,626.7c0,0,52.3,3.8,75.1,3.3"/>
	<path class="st0" d="M1141.8,620.9c0,0,62.3,2.8,71.8,5.8s7.8,1.7,14.9,5.1c0,0,77.7-2.3,125-16.8c0,0,19.4-5,28.2-9.8
		c0,0,3.5-0.5,6.8-10.7"/>
	<path class="st0" d="M1153.5,609.1c0,0,54.5,1.8,69.8,5.8c0,0,6.2,1.8,10.5,4.2c0,0,44.4-1.2,74.5-6.4"/>
	<path class="st0" d="M1380.4,596.1c0,0,8.3-1.8,9.6-11.8"/>
	<path class="st0" d="M1147.8,614.8c0,0,53.1,3.9,71.5,3.3"/>
	<path class="st0" d="M1163.2,597.4c0,0,59.7,1.5,69,6.3c0,0,4.9,1.8,8.6,3.5c0,0,35.8-0.3,50.8-2.5"/>
	<path class="st0" d="M1380.4,586.3c0,0,10.6-2.1,11-12.1"/>
	<path class="st0" d="M1170.1,591.3c0,0,38.1,3.3,59.8,2.5"/>
	<path class="st0" d="M1176.7,585.4c0,0,51.4,0.6,67.4,8.6c0,0,30.3,1.5,48-1.3"/>
	<path class="st0" d="M1186.4,579.2c0,0,19.4,2.9,48.3,2.6"/>
	<path class="st0" d="M1196.1,573.4c0,0,32-0.5,53.5,8.4c0,0,25.7,0.3,42.8-1.3"/>
	<path class="st0" d="M1380.4,575.4c0,0,10.2-2.3,11.9-14.2"/>
	<path class="st0" d="M1377.3,564.4c0,0,20.6-6,9-19.5c0,0-10.8,2.1-19.4,6.5c0,0-1.8,0.9-4.5,10.1"/>
	<path class="st0" d="M1292.5,577.6c-36.6,6.5-56.1-11.1-56.1-11.1s41.2-6.5,63.2-0.6"/>
	<path class="st0" d="M1301.5,612.5l-8.9-3.1c0,0-1.3-0.3-1.3-2.8c0.1-2.5,1.3-28,1.3-28s0.1-2.3,2.1-2.6s27.3-3.5,27.3-3.5"/>
	<path class="st0" d="M914.8,550.6c0,0,71.8,1,81.8,82.3c0,0-1,82.5-81.8,82.5c0,0-72.5-4.8-78.3-82.4
		C836.5,632.9,831.8,555.3,914.8,550.6z"/>
	<path class="st0" d="M804,673.2c0,0-4.3-9-1.5-25c0,0,1.7-2.2,2.3-8.8c0.7-6.7-9-33,5.7-69.8s40.8-61.9,86-64s83.2,40.9,88.7,52.7
		c0,0,22.2,28.5,30.5,88.7c0,0,3.2,17.8-1.9,36.7c0,0-1,6.9,1.3,12.3"/>
	<path class="st0" d="M821.7,671.2c0,0-14-36-8.5-58.7s13.8-55.8,65.8-81.5c0,0,54.9-20.8,101.2,19.5"/>
	<path class="st0" d="M1139.9,541.8c0,0-17.4-2.3-19.4-2.3s-4,0.4-1.8,3.2c2.2,2.8,5.5,6.5,5.5,6.5s1.4,2.1,6.2,2.8
		s18.1,2.5,19.3,2.5c1.2,0,4.8-0.5,2.7-3s-7.5-7.5-7.5-7.5S1143.9,542.7,1139.9,541.8z"/>
	<circle class="st0" cx="1129.8" cy="583.5" r="2.9"/>
	<path class="st0" d="M1036.3,671.2c0,0,25.5,3.8,38-8.3c12.5-12.2,80.8-83.5,90.3-89.5s13.2-11.7,39.8-14.5
		c26.7-2.8,46.8-4.7,53.2-4.3c6.3,0.3,3.8-2.5-0.8-3.8c-4.7-1.3-73.8-14.5-110.5-19.3c-36.7-4.8-100.3-15-111.7-19.5
		c-11.3-4.5-7-2.5-13.5-7.2c-6.5-4.7-23.3-19-23.3-19s-7-10.3,9.3-8.5c16.3,1.8,162.1,15.7,162.1,15.7s7.6-4,25.3-4.5
		s39-0.5,58.9-1.9c19.9-1.4,24.5-2.5,37.3-3.8s35.8-3.6,35.8-3.6s8.6,0.7,15.6-3.2c0,0,6.8-3.3,8.4-1.4"/>
	<path class="st0" d="M1071.5,487.1l96,9.5c0,0,50.8,31,60.8,43c0,0,2,5.9-6.9,4.2"/>
	<path class="st0" d="M1175.5,496.2c0,0,101.8,9.5,132.8,10.7c0,0,6,1,11.8-2.5c5.8-3.4,14.2-4.1,16.2-0.4c0,0,6.6-0.9,10.3-4.9
		s10.3-11.5,8.2-18.1"/>
	<path class="st0" d="M1185.8,503.4c0,0,98.4,9.9,107,12.1c8.6,2.2,12.4,4.2,23.1,14.6s14.5,12.9,21.2,11.6c6.7-1.3,8.4-3.1,8.4-9.6
		c0-6.5-1.8-20.5,0.9-24.2c2.7-3.7,6.2-7.4,5.7-15.3"/>
	<path class="st0" d="M1191.3,511.7c0,0,90.7,11.7,108.2,18c0,0,13.2,5.1,23.6,21.1c0,0,6.3,7.9,11.6,7.3c5.3-0.6,9.3-1.3,9.3-1.3
		s4.3,0.2,6.3-9.6s2.5-12.7,2.4-15.3c-0.1-2.7,2.5-7.1,2.5-7.1s8.4-11.2,5.3-25.1c0,0,0.2-1.8-6.9-4.4"/>
	<path class="st0" d="M1205,518.8l24.8,16.3c0,0,33.2,5,57.4,13.1c0,0,10.4,5.1,16.5,10.8s9.2,8.6,18.2,7.9s24-2.4,36.6-6.3
		c0,0,6-0.9,6.5-15.6c0,0,2.3-21.3,3.4-23.3c0,0-1.9-16.1-8.2-22.6"/>
	<path class="st0" d="M1373,513c0,0,3.3,10,3.1,21.3c0,0-0.3,5.4,5.4,2.6s7.3-3.5,10.5-3"/>
	<path class="st0" d="M1318.1,522.7c0,0-1-14.2,10.2-16.1c11.2-1.9,12.2,14.3,12.2,14.3s-0.2,15.3-9.7,16.7
		S1318.4,526.3,1318.1,522.7z"/>
	<path class="st0" d="M964.5,533.9c0,0,23.8-11.6,35-15.5c11.2-3.8,22.9-8.7,25.5-10.7"/>
	<path class="st0" d="M235.7,598.4c0,0-8.5-29.3-8.8-45.5c-0.3-16.2,4.8-43.7,16.5-57.5c11.7-13.8,32.2-26,57.2-17
		s40.5,35.3,43.7,42.3c3.2,7,17.2,36.5,20.7,81.3l3,19.2l51.9,7.2"/>
	<path class="st0" d="M716.5,448.4c0,0,0.1-10.6,0.6-12.5c0,0-1.1-5.4-2.9-7s-33.1-4.6-33.1-4.6s-12.6-0.5-18.5-7.1
		c0,0-1.1-1.2-1.1-3.8c0,0-3.8-7.1-3.3-11.8s7.8-14,16-18.6c0,0,20-4.5,42.9-1.5c0,0,10.5,0.4,26.3,24c0,0,5.3,6.3-1.4,12
		c0,0,0,4,6.9,12.6c0,0,6,7.4,5.1,9.4c0,0,1.6,5-14.4,9S720.1,451.4,716.5,448.4z"/>
	<path class="st0" d="M666.6,418.3c0,0,33,5.3,48.7,4.2c0,0-0.2-2.4-4.8-2.8c-4.7-0.4-41.9-3.3-47.1-5.5"/>
	<path class="st0" d="M661,412.3c0,0,22.3,3.9,46.5,3.9c0,0,27.2,0.3,34.6,1.7"/>
	<path class="st0" d="M744.7,424.1c0,0,31.3-1.8,53-6.3c0,0-58.5-55.9-80.5-71.9s-48.5-39.2-94.4-47.8s-81.5-8.3-101.5-7.3
		s-66.4,5.9-94.8,13.6c0,0-15.5,2.8-66.8,43.2c0,0-17.8,13.3-18.6,25.2c0,0-0.7,4.8,3.6,7.2c4.3,2.4,24.4,13.5,35.9,16.4
		c11.5,2.9,17.7,3.5,33.2,4.7s117.8,10.3,119,10.3c1.2,0,143.2,14.5,143.2,14.5l22.3,1.3l11.4,0.5"/>
	<path class="st0" d="M346.7,364.6c0,0,6.8-13.7,51-41.1c0,0,18.1-12.8,30.8-15.9s63.6-14.6,104.1-13.1c0,0-10.4,32.1-14.4,51.5
		s-8.9,47.8-9.5,60.4c0,0-104.4-7.1-113.4-9.3s-35.7-9-50.3-20.5C345,376.7,341,372.8,346.7,364.6z"/>
	<path class="st0" d="M408.7,316.6c0,0-12.5,34.3-18,79.5"/>
	<path class="st0" d="M508.6,406.4l18.5,1.9c0,0,2.8-64.3,17.7-113.9l-12.3,0.1"/>
	<path class="st0" d="M544.8,294.4l13.7,0.4c0,0-9.6,17.7-13.7,115.2l-17.7-1.8"/>
	<line class="st0" x1="672.9" y1="422.9" x2="544.8" y2="410.1"/>
	<path class="st0" d="M558.6,294.9c0,0,58.8,0.3,96.9,17c0,0,38.8,19.8,71.5,48.2s62.8,55.7,62.8,55.7l-45.9,6.9"/>
	<path class="st0" d="M341.6,377.3c-1.9,0.3-2.4,1.4-2.4,1.4s-7,12.3-12.3,18.1s-5.6,4.6-8.5,7.3s-6.1,14.1-6.1,14.1l-1.4,7.1
		l1.4,4.4c0,0-0.4,1.6,2.3,19.8s15.2,34.2,15.2,34.2c25,28.7,36.1,74.1,36.1,74.1s3.6,13.5,7.3,26.9c3.8,13.4,16.7,14.7,16.7,14.7
		l35.1,4.2c29.7,1,352.7,43.2,354,40.5s2.3-14.7,2.3-14.7c-0.7-7.8,3-62.8,3-62.8s5.3-71.7,6.2-77s0-15,0-15c0.5-6.7,3.2-16,3.2-16
		c4.5-6.8,6.8-15.8,6.8-15.8c0.5-19.5-2.8-24.9-2.8-24.9s22.7-3.1,41.5-3.7s116.5-6,127.2-5.2c0,0,56.8-3.5,77.5-3.5
		c20.7,0,33.5-0.7,43.5-1.8"/>
	<path class="st0" d="M526.7,410.9l-2.3,1.9c0,0-1.5,9.2-8.3,17.2c0,0-3.9,5.1-4.7,14.6c0,0,0.1,4.6,0.5,7.3
		c0.4,2.8-0.1,16.9-0.1,16.9s0.4,62.3,1.3,73.6c0.8,11.3,2.8,41,2.8,41s2,15.3-3,29.7"/>
	<path class="st0" d="M361.5,576.3c0,0,9.7,0.9,9.7,0.9"/>
	<path class="st0" d="M198.7,585.6c0,0-24.1-22.8-31.8-42.6"/>
	<path class="st0" d="M1068,483.2c0,0-13.6-15.8-40.9-23.3s-115.3-24.4-115.3-24.4s-28.7-4.9-44.1-16.5c0,0-2.5-3.7-24.3-5.2"/>
	<path class="st0" d="M823,415c0,0-116.5-107.2-133.7-117.7c0,0,87.5-4.4,127.7-2.4s65.2,3.4,80.7,8.3"/>
	<path class="st0" d="M532.5,276.9c0,0,99.4-4.2,156.8,20.4"/>
	<path class="st0" d="M176.4,453.6c0,0,4.3,34,8.1,38.4c3.8,4.4,8.1,3.7,13.3,5.1s21.8,3.8,25.8,5.1c3.9,1.3,12.7,4.6,12.7,4.6"/>
	<path class="st0" d="M176.3,446.2c0,0,18.8-11.3,36.6-16.9s14.3-10.8,14.3-10.8s-2-8.2-11.3-9s-32.7-3-32.7-3"/>
	<path class="st0" d="M199.7,396.6c0,0,20.2-3.5,29-12.9c0,0,9.7-8.6,13.7-11"/>
	<path class="st0" d="M363.7,312.6c0,0-3.6,11.1-81.6,43.1"/>
	<path class="st0" d="M288.3,506.8c0,0,42,3.3,46.3,68.3c0,0,2.8,57.8-38.3,64.5c0,0-36.5,3.8-48-60.3
		C248.3,579.3,243.8,508.3,288.3,506.8z"/>
	<path class="st0" d="M300.2,657.2c0,0,39.5-4.3,45.2-65.7c5.7-61.3-30-93-43-98.3c-13-5.3-29.7-4-43.7,9c-14,13-29,58.3-18,95.3"/>
	<path class="st0" d="M331,425.2c0,0,0.3-2.8,5.3-2.9s8.4,0,8.4,0s1.5,0.4,2,1.4c0,0,9,1,16,0c0,0,11.8,2.3,12.6,7s-13,5.1-13,5.1
		s-8.5-5.1-16.3-3.8c0,0-1.7,1.8-3.4,2s-7.1-0.5-10.6-2.1c0,0-2.1-1.1-1.8-2.9S331,425.2,331,425.2z"/>
	<path class="st0" d="M519.4,443.3c0,0,0.3-3.1,5.3-3.1s8.3,0,8.3,0s2.1,2.3,7.2,2.6s9.8,1.1,18.1,0.3c0,0,11.9,1.7,14.4,7.3
		c0,0,0.3,5.2-14.9,5.2c0,0-12.2-4.3-21.1-3.8c0,0-0.9,2.4-5.3,1.6s-10.1-2.3-10.1-2.3s-2.7-0.8-2.6-3.2S519.4,443.3,519.4,443.3z"
		/>
	<path class="st0" d="M537.9,439.9c0,0,4.8-5.9,12.3-4.5c7.5,1.3,7.8,2.2,8.5,6.4"/>
	<path class="st0" d="M536.5,454.6c0,0,0.5,6.7,8.3,7.3c7.8,0.6,8.9-1.4,11.3-4.9"/>
	<path class="st0" d="M348.5,421.2c0,0,3.4-5.1,9.9-4c6.5,1.1,6.3,3.3,6.2,5.4"/>
	<path class="st0" d="M344.4,435.8c0,0,1.8,4.9,6.4,5.3c4.6,0.3,8.3-0.9,9.8-3.9"/>
</g>
</svg>
